<svg width="11" height="8" viewBox="0 0 11 8" fill="none" xmlns="http://www.w3.org/2000/svg">
<path d="M1.18679 3.28194H7.20378C7.59593 3.28194 7.86553 3.01891 7.86553 2.73302C7.86553 2.58435 7.792 2.43568 7.6572 2.29845L6.94644 1.61229C6.72585 1.39501 6.64007 1.17773 6.64007 0.983318C6.64007 0.685984 6.87291 0.457266 7.17927 0.457266C7.37535 0.457266 7.59593 0.537317 7.792 0.731728L10.7331 3.69363C10.8189 3.77368 10.8679 3.88804 10.8679 3.97953C10.8679 4.07102 10.8189 4.16251 10.7454 4.24256L7.80426 7.27308C7.68171 7.38744 7.53466 7.43318 7.41211 7.43318C7.05673 7.43318 6.72585 7.13585 6.72585 6.8042C6.72585 6.66697 6.78713 6.52974 6.89742 6.40395L7.68171 5.6263C7.81651 5.48907 7.87778 5.34041 7.87778 5.20318C7.87778 4.91728 7.63269 4.65425 7.22829 4.65425H1.18679C0.941696 4.65425 0.733368 4.45984 0.733368 4.23112V3.70507C0.733368 3.47635 0.941696 3.28194 1.18679 3.28194Z" fill="#60A3AD"/>
</svg>
