<svg width="11" height="8" viewBox="0 0 11 8" fill="none" xmlns="http://www.w3.org/2000/svg">
<path d="M9.81318 4.37656L3.79619 4.37656C3.40404 4.37656 3.13444 4.63959 3.13444 4.92549C3.13444 5.07415 3.20797 5.22282 3.34277 5.36005L4.05353 6.04621C4.27412 6.26349 4.3599 6.48077 4.3599 6.67518C4.3599 6.97252 4.12706 7.20124 3.8207 7.20124C3.62462 7.20124 3.40404 7.12119 3.20797 6.92677L0.266871 3.96487C0.181089 3.88482 0.132069 3.77046 0.132069 3.67897C0.132069 3.58748 0.181088 3.496 0.254615 3.41595L3.19571 0.385425C3.31826 0.271066 3.46531 0.225322 3.58786 0.225322C3.94324 0.225322 4.27412 0.522656 4.27412 0.854298C4.27412 0.991529 4.21284 1.12876 4.10255 1.25456L3.31826 2.0322C3.18346 2.16943 3.12219 2.3181 3.12219 2.45533C3.12219 2.74123 3.36728 3.00425 3.77168 3.00425L9.81318 3.00425C10.0583 3.00425 10.2666 3.19866 10.2666 3.42738L10.2666 3.95343C10.2666 4.18215 10.0583 4.37656 9.81318 4.37656Z" fill="#60A3AD"/>
</svg>
